<mxfile host="Electron" modified="2023-06-22T10:46:47.891Z" agent="Mozilla/5.0 (Macintosh; Intel Mac OS X 10_15_7) AppleWebKit/537.36 (KHTML, like Gecko) draw.io/21.5.0 Chrome/112.0.5615.204 Electron/24.5.1 Safari/537.36" etag="8npRyCQor7biyXFZEaMH" version="21.5.0" type="device">
  <diagram name="Page-1" id="Sv90zKjrFbY5oFQwF5Ml">
    <mxGraphModel dx="2320" dy="1953" grid="1" gridSize="10" guides="1" tooltips="1" connect="1" arrows="1" fold="1" page="1" pageScale="1" pageWidth="827" pageHeight="1169" math="0" shadow="0">
      <root>
        <mxCell id="0" />
        <mxCell id="1" parent="0" />
        <mxCell id="6dH0qjfEbrckoVV57DxT-1" value="reality_show" style="rounded=1;arcSize=10;whiteSpace=wrap;html=1;align=center;fillColor=#1ba1e2;fontColor=#ffffff;strokeColor=#006EAF;" parent="1" vertex="1">
          <mxGeometry x="70" y="130" width="100" height="40" as="geometry" />
        </mxCell>
        <mxCell id="6dH0qjfEbrckoVV57DxT-4" value="" style="endArrow=none;html=1;rounded=0;" parent="1" edge="1">
          <mxGeometry width="50" height="50" relative="1" as="geometry">
            <mxPoint x="170" y="130" as="sourcePoint" />
            <mxPoint x="220" y="80" as="targetPoint" />
          </mxGeometry>
        </mxCell>
        <mxCell id="6dH0qjfEbrckoVV57DxT-6" value="" style="endArrow=none;html=1;rounded=0;exitX=0.5;exitY=0;exitDx=0;exitDy=0;" parent="1" source="6dH0qjfEbrckoVV57DxT-1" edge="1">
          <mxGeometry width="50" height="50" relative="1" as="geometry">
            <mxPoint x="110" y="130" as="sourcePoint" />
            <mxPoint x="120" y="50" as="targetPoint" />
          </mxGeometry>
        </mxCell>
        <mxCell id="6dH0qjfEbrckoVV57DxT-7" value="participants" style="ellipse;shape=doubleEllipse;margin=3;whiteSpace=wrap;html=1;align=center;fillColor=#60a917;fontColor=#ffffff;strokeColor=#2D7600;" parent="1" vertex="1">
          <mxGeometry x="70" y="10" width="100" height="40" as="geometry" />
        </mxCell>
        <mxCell id="6dH0qjfEbrckoVV57DxT-8" value="name&amp;nbsp;" style="ellipse;whiteSpace=wrap;html=1;align=center;fillColor=#60a917;fontColor=#ffffff;strokeColor=#2D7600;" parent="1" vertex="1">
          <mxGeometry x="220" y="60" width="100" height="40" as="geometry" />
        </mxCell>
        <mxCell id="6dH0qjfEbrckoVV57DxT-10" value="RID" style="ellipse;whiteSpace=wrap;html=1;align=center;fontStyle=4;fillColor=#60a917;fontColor=#ffffff;strokeColor=#2D7600;" parent="1" vertex="1">
          <mxGeometry x="-80" y="130" width="100" height="40" as="geometry" />
        </mxCell>
        <mxCell id="6dH0qjfEbrckoVV57DxT-11" value="" style="endArrow=none;html=1;rounded=0;" parent="1" edge="1">
          <mxGeometry width="50" height="50" relative="1" as="geometry">
            <mxPoint x="20" y="149.67" as="sourcePoint" />
            <mxPoint x="70" y="149.67" as="targetPoint" />
          </mxGeometry>
        </mxCell>
        <mxCell id="6dH0qjfEbrckoVV57DxT-12" value="" style="endArrow=none;html=1;rounded=0;" parent="1" edge="1">
          <mxGeometry width="50" height="50" relative="1" as="geometry">
            <mxPoint x="120" y="240" as="sourcePoint" />
            <mxPoint x="120" y="170" as="targetPoint" />
          </mxGeometry>
        </mxCell>
        <mxCell id="6dH0qjfEbrckoVV57DxT-56" value="M" style="edgeLabel;html=1;align=center;verticalAlign=middle;resizable=0;points=[];" parent="6dH0qjfEbrckoVV57DxT-12" vertex="1" connectable="0">
          <mxGeometry x="-0.551" y="6" relative="1" as="geometry">
            <mxPoint as="offset" />
          </mxGeometry>
        </mxCell>
        <mxCell id="6dH0qjfEbrckoVV57DxT-13" value="realityshow&lt;br&gt;_by" style="shape=rhombus;perimeter=rhombusPerimeter;whiteSpace=wrap;html=1;align=center;fillColor=#6a00ff;fontColor=#ffffff;strokeColor=#3700CC;" parent="1" vertex="1">
          <mxGeometry x="60" y="240" width="120" height="60" as="geometry" />
        </mxCell>
        <mxCell id="6dH0qjfEbrckoVV57DxT-15" value="" style="endArrow=none;html=1;rounded=0;entryX=0.5;entryY=1;entryDx=0;entryDy=0;" parent="1" target="6dH0qjfEbrckoVV57DxT-13" edge="1">
          <mxGeometry width="50" height="50" relative="1" as="geometry">
            <mxPoint x="120" y="360" as="sourcePoint" />
            <mxPoint x="130" y="300" as="targetPoint" />
          </mxGeometry>
        </mxCell>
        <mxCell id="6dH0qjfEbrckoVV57DxT-57" value="M" style="edgeLabel;html=1;align=center;verticalAlign=middle;resizable=0;points=[];" parent="6dH0qjfEbrckoVV57DxT-15" vertex="1" connectable="0">
          <mxGeometry x="0.2381" y="4" relative="1" as="geometry">
            <mxPoint as="offset" />
          </mxGeometry>
        </mxCell>
        <mxCell id="6dH0qjfEbrckoVV57DxT-16" value="TV_Channel" style="whiteSpace=wrap;html=1;align=center;fillColor=#1ba1e2;fontColor=#ffffff;strokeColor=#006EAF;" parent="1" vertex="1">
          <mxGeometry x="80" y="360" width="100" height="40" as="geometry" />
        </mxCell>
        <mxCell id="6dH0qjfEbrckoVV57DxT-17" value="" style="endArrow=none;html=1;rounded=0;" parent="1" edge="1">
          <mxGeometry relative="1" as="geometry">
            <mxPoint x="180" y="380" as="sourcePoint" />
            <mxPoint x="280" y="380" as="targetPoint" />
          </mxGeometry>
        </mxCell>
        <mxCell id="6dH0qjfEbrckoVV57DxT-18" value="TV name&amp;nbsp;" style="ellipse;whiteSpace=wrap;html=1;align=center;fillColor=#60a917;fontColor=#ffffff;strokeColor=#2D7600;" parent="1" vertex="1">
          <mxGeometry x="280" y="360" width="100" height="40" as="geometry" />
        </mxCell>
        <mxCell id="6dH0qjfEbrckoVV57DxT-19" value="" style="endArrow=none;html=1;rounded=0;exitX=1;exitY=0;exitDx=0;exitDy=0;entryX=0;entryY=0.5;entryDx=0;entryDy=0;" parent="1" source="6dH0qjfEbrckoVV57DxT-16" target="6dH0qjfEbrckoVV57DxT-22" edge="1">
          <mxGeometry width="50" height="50" relative="1" as="geometry">
            <mxPoint x="100" y="340" as="sourcePoint" />
            <mxPoint x="280" y="290" as="targetPoint" />
            <Array as="points" />
          </mxGeometry>
        </mxCell>
        <mxCell id="6dH0qjfEbrckoVV57DxT-20" value="" style="endArrow=none;html=1;rounded=0;" parent="1" edge="1">
          <mxGeometry width="50" height="50" relative="1" as="geometry">
            <mxPoint x="290" y="450" as="sourcePoint" />
            <mxPoint x="180" y="400" as="targetPoint" />
          </mxGeometry>
        </mxCell>
        <mxCell id="6dH0qjfEbrckoVV57DxT-22" value="TV ID" style="ellipse;whiteSpace=wrap;html=1;align=center;fontStyle=4;fillColor=#60a917;fontColor=#ffffff;strokeColor=#2D7600;" parent="1" vertex="1">
          <mxGeometry x="290" y="290" width="100" height="40" as="geometry" />
        </mxCell>
        <mxCell id="6dH0qjfEbrckoVV57DxT-23" value="Head offic" style="ellipse;whiteSpace=wrap;html=1;align=center;fillColor=#60a917;fontColor=#ffffff;strokeColor=#2D7600;" parent="1" vertex="1">
          <mxGeometry x="290" y="430" width="100" height="40" as="geometry" />
        </mxCell>
        <mxCell id="6dH0qjfEbrckoVV57DxT-24" value="" style="endArrow=none;html=1;rounded=0;" parent="1" edge="1">
          <mxGeometry width="50" height="50" relative="1" as="geometry">
            <mxPoint y="380" as="sourcePoint" />
            <mxPoint x="80" y="380" as="targetPoint" />
          </mxGeometry>
        </mxCell>
        <mxCell id="6dH0qjfEbrckoVV57DxT-25" value="Start year&amp;nbsp;" style="ellipse;whiteSpace=wrap;html=1;align=center;fillColor=#60a917;fontColor=#ffffff;strokeColor=#2D7600;" parent="1" vertex="1">
          <mxGeometry x="-100" y="360" width="100" height="40" as="geometry" />
        </mxCell>
        <mxCell id="6dH0qjfEbrckoVV57DxT-26" value="" style="endArrow=none;html=1;rounded=0;" parent="1" edge="1">
          <mxGeometry relative="1" as="geometry">
            <mxPoint x="170" y="150" as="sourcePoint" />
            <mxPoint x="460" y="150" as="targetPoint" />
          </mxGeometry>
        </mxCell>
        <mxCell id="6dH0qjfEbrckoVV57DxT-28" value="Product_by" style="shape=rhombus;perimeter=rhombusPerimeter;whiteSpace=wrap;html=1;align=center;fillColor=#6a00ff;fontColor=#ffffff;strokeColor=#3700CC;" parent="1" vertex="1">
          <mxGeometry x="450" y="120" width="120" height="60" as="geometry" />
        </mxCell>
        <mxCell id="6dH0qjfEbrckoVV57DxT-29" value="" style="endArrow=none;html=1;rounded=0;exitX=0;exitY=0.5;exitDx=0;exitDy=0;" parent="1" source="6dH0qjfEbrckoVV57DxT-30" edge="1">
          <mxGeometry width="50" height="50" relative="1" as="geometry">
            <mxPoint x="480" y="260" as="sourcePoint" />
            <mxPoint x="170" y="170" as="targetPoint" />
          </mxGeometry>
        </mxCell>
        <mxCell id="6dH0qjfEbrckoVV57DxT-30" value="rated_by&amp;nbsp;" style="shape=rhombus;perimeter=rhombusPerimeter;whiteSpace=wrap;html=1;align=center;fillColor=#6a00ff;fontColor=#ffffff;strokeColor=#3700CC;" parent="1" vertex="1">
          <mxGeometry x="450" y="230" width="120" height="60" as="geometry" />
        </mxCell>
        <mxCell id="6dH0qjfEbrckoVV57DxT-31" value="" style="endArrow=none;html=1;rounded=0;" parent="1" edge="1">
          <mxGeometry relative="1" as="geometry">
            <mxPoint x="570" y="150" as="sourcePoint" />
            <mxPoint x="730" y="150" as="targetPoint" />
          </mxGeometry>
        </mxCell>
        <mxCell id="6dH0qjfEbrckoVV57DxT-32" value="" style="endArrow=none;html=1;rounded=0;" parent="1" edge="1">
          <mxGeometry relative="1" as="geometry">
            <mxPoint x="570" y="260" as="sourcePoint" />
            <mxPoint x="730" y="260" as="targetPoint" />
          </mxGeometry>
        </mxCell>
        <mxCell id="6dH0qjfEbrckoVV57DxT-33" value="Producer" style="whiteSpace=wrap;html=1;align=center;fillColor=#1ba1e2;fontColor=#ffffff;strokeColor=#006EAF;" parent="1" vertex="1">
          <mxGeometry x="727" y="130" width="100" height="40" as="geometry" />
        </mxCell>
        <mxCell id="6dH0qjfEbrckoVV57DxT-34" value="User" style="whiteSpace=wrap;html=1;align=center;fillColor=#1ba1e2;fontColor=#ffffff;strokeColor=#006EAF;" parent="1" vertex="1">
          <mxGeometry x="727" y="240" width="100" height="40" as="geometry" />
        </mxCell>
        <mxCell id="6dH0qjfEbrckoVV57DxT-35" value="" style="endArrow=none;html=1;rounded=0;exitX=0;exitY=0.5;exitDx=0;exitDy=0;" parent="1" source="6dH0qjfEbrckoVV57DxT-39" edge="1">
          <mxGeometry width="50" height="50" relative="1" as="geometry">
            <mxPoint x="930" y="330" as="sourcePoint" />
            <mxPoint x="830" y="280" as="targetPoint" />
          </mxGeometry>
        </mxCell>
        <mxCell id="6dH0qjfEbrckoVV57DxT-36" value="" style="endArrow=none;html=1;rounded=0;" parent="1" edge="1">
          <mxGeometry width="50" height="50" relative="1" as="geometry">
            <mxPoint x="830" y="260" as="sourcePoint" />
            <mxPoint x="960" y="260" as="targetPoint" />
          </mxGeometry>
        </mxCell>
        <mxCell id="6dH0qjfEbrckoVV57DxT-37" value="" style="endArrow=none;html=1;rounded=0;" parent="1" edge="1">
          <mxGeometry width="50" height="50" relative="1" as="geometry">
            <mxPoint x="830" y="240" as="sourcePoint" />
            <mxPoint x="970" y="200" as="targetPoint" />
          </mxGeometry>
        </mxCell>
        <mxCell id="6dH0qjfEbrckoVV57DxT-38" value="username&amp;nbsp;" style="ellipse;whiteSpace=wrap;html=1;align=center;fillColor=#60a917;fontColor=#ffffff;strokeColor=#2D7600;" parent="1" vertex="1">
          <mxGeometry x="960" y="240" width="100" height="40" as="geometry" />
        </mxCell>
        <mxCell id="6dH0qjfEbrckoVV57DxT-39" value="Pwd" style="ellipse;whiteSpace=wrap;html=1;align=center;fillColor=#60a917;fontColor=#ffffff;strokeColor=#2D7600;" parent="1" vertex="1">
          <mxGeometry x="960" y="310" width="100" height="40" as="geometry" />
        </mxCell>
        <mxCell id="6dH0qjfEbrckoVV57DxT-40" value="" style="endArrow=none;html=1;rounded=0;exitX=0;exitY=0.5;exitDx=0;exitDy=0;" parent="1" source="6dH0qjfEbrckoVV57DxT-42" edge="1">
          <mxGeometry width="50" height="50" relative="1" as="geometry">
            <mxPoint x="940" y="400" as="sourcePoint" />
            <mxPoint x="802" y="280" as="targetPoint" />
          </mxGeometry>
        </mxCell>
        <mxCell id="6dH0qjfEbrckoVV57DxT-42" value="age&amp;nbsp;" style="ellipse;whiteSpace=wrap;html=1;align=center;fillColor=#60a917;fontColor=#ffffff;strokeColor=#2D7600;" parent="1" vertex="1">
          <mxGeometry x="960" y="380" width="100" height="40" as="geometry" />
        </mxCell>
        <mxCell id="6dH0qjfEbrckoVV57DxT-43" value="UID" style="ellipse;whiteSpace=wrap;html=1;align=center;fontStyle=4;fillColor=#60a917;fontColor=#ffffff;strokeColor=#2D7600;" parent="1" vertex="1">
          <mxGeometry x="970" y="180" width="100" height="40" as="geometry" />
        </mxCell>
        <mxCell id="6dH0qjfEbrckoVV57DxT-44" value="prod ID" style="ellipse;whiteSpace=wrap;html=1;align=center;fontStyle=4;fillColor=#60a917;fontColor=#ffffff;strokeColor=#2D7600;" parent="1" vertex="1">
          <mxGeometry x="950" y="10" width="100" height="40" as="geometry" />
        </mxCell>
        <mxCell id="6dH0qjfEbrckoVV57DxT-45" value="" style="endArrow=none;html=1;rounded=0;entryX=0;entryY=0.5;entryDx=0;entryDy=0;" parent="1" target="6dH0qjfEbrckoVV57DxT-44" edge="1">
          <mxGeometry width="50" height="50" relative="1" as="geometry">
            <mxPoint x="830" y="130" as="sourcePoint" />
            <mxPoint x="880" y="80" as="targetPoint" />
          </mxGeometry>
        </mxCell>
        <mxCell id="6dH0qjfEbrckoVV57DxT-47" value="company name&amp;nbsp;" style="ellipse;whiteSpace=wrap;html=1;align=center;fillColor=#60a917;fontColor=#ffffff;strokeColor=#2D7600;" parent="1" vertex="1">
          <mxGeometry x="950" y="70" width="100" height="40" as="geometry" />
        </mxCell>
        <mxCell id="6dH0qjfEbrckoVV57DxT-48" value="" style="endArrow=none;html=1;rounded=0;entryX=0;entryY=0.5;entryDx=0;entryDy=0;" parent="1" target="6dH0qjfEbrckoVV57DxT-47" edge="1">
          <mxGeometry width="50" height="50" relative="1" as="geometry">
            <mxPoint x="830" y="150" as="sourcePoint" />
            <mxPoint x="880" y="100" as="targetPoint" />
          </mxGeometry>
        </mxCell>
        <mxCell id="6dH0qjfEbrckoVV57DxT-49" value="" style="endArrow=none;html=1;rounded=0;entryX=0;entryY=0.5;entryDx=0;entryDy=0;" parent="1" target="6dH0qjfEbrckoVV57DxT-50" edge="1">
          <mxGeometry width="50" height="50" relative="1" as="geometry">
            <mxPoint x="780" y="130" as="sourcePoint" />
            <mxPoint x="940" y="-20" as="targetPoint" />
          </mxGeometry>
        </mxCell>
        <mxCell id="6dH0qjfEbrckoVV57DxT-50" value="country" style="ellipse;whiteSpace=wrap;html=1;align=center;fillColor=#60a917;fontColor=#ffffff;strokeColor=#2D7600;" parent="1" vertex="1">
          <mxGeometry x="950" y="-50" width="100" height="40" as="geometry" />
        </mxCell>
        <mxCell id="6dH0qjfEbrckoVV57DxT-51" value="M" style="text;html=1;align=center;verticalAlign=middle;resizable=0;points=[];autosize=1;strokeColor=none;fillColor=none;" parent="1" vertex="1">
          <mxGeometry x="365" y="118" width="30" height="30" as="geometry" />
        </mxCell>
        <mxCell id="6dH0qjfEbrckoVV57DxT-52" value="1" style="text;html=1;align=center;verticalAlign=middle;resizable=0;points=[];autosize=1;strokeColor=none;fillColor=none;" parent="1" vertex="1">
          <mxGeometry x="605" y="120" width="30" height="30" as="geometry" />
        </mxCell>
        <mxCell id="6dH0qjfEbrckoVV57DxT-53" value="M" style="text;html=1;align=center;verticalAlign=middle;resizable=0;points=[];autosize=1;strokeColor=none;fillColor=none;" parent="1" vertex="1">
          <mxGeometry x="395" y="208" width="30" height="30" as="geometry" />
        </mxCell>
        <mxCell id="6dH0qjfEbrckoVV57DxT-54" value="M" style="text;html=1;align=center;verticalAlign=middle;resizable=0;points=[];autosize=1;strokeColor=none;fillColor=none;" parent="1" vertex="1">
          <mxGeometry x="635" y="228" width="30" height="30" as="geometry" />
        </mxCell>
      </root>
    </mxGraphModel>
  </diagram>
</mxfile>
